<svg width="154" height="45" viewBox="0 0 154 45" fill="none" xmlns="http://www.w3.org/2000/svg">
<g clip-path="url(#clip0)">
<path d="M142.77 10.5601V21.0001H135.83V10.5601" fill="#66D9FB"/>
<path d="M142.77 27.8701V38.3401H135.83V27.8701" fill="#C28AEB"/>
<path d="M142.66 20.9199H153.24V27.9199H142.66" fill="#7DFA8C"/>
<g style="mix-blend-mode:multiply">
<path d="M125.25 20.9199H135.83V27.9199H125.25" fill="#FF9F1A"/>
</g>
<path d="M142.77 20.9199H135.83V27.8699H142.77V20.9199Z" fill="#FF3838"/>
<path d="M8.08 44H0V0H8.08V16.59C10.03 14.28 13.31 13.31 16.16 13.31C23.76 13.31 27.28 18.59 27.28 25.16V44H19.2V26.55C19.2 23.21 17.56 20.6 13.67 20.6C10.27 20.6 8.26 23.15 8.08 26.43V44Z" fill="#CCCCCC"/>
<path d="M39.5501 26.7999L46.9001 25.6999C48.6001 25.4599 49.1501 24.6099 49.1501 23.5799C49.1501 21.4499 47.5101 19.6899 44.1501 19.6899C40.7901 19.6899 38.6801 21.9299 38.4401 24.5499L31.2301 22.9999C31.7101 18.3199 36.0301 13.1599 44.0501 13.1599C53.5201 13.1599 57.0501 18.4999 57.0501 24.5199V39.2199C57.057 40.8198 57.1773 42.4171 57.4101 43.9999H50.0001C49.7954 42.8177 49.6951 41.6197 49.7001 40.4199C48.7396 41.8567 47.4232 43.02 45.8791 43.7964C44.3351 44.5728 42.6162 44.9357 40.8901 44.8499C34.5101 44.8499 30.6201 40.5399 30.6201 35.8499C30.6201 30.4999 34.5701 27.5199 39.5501 26.7999ZM49.1501 31.8999V30.5599L42.4101 31.5599C40.3401 31.8699 38.7001 33.0199 38.7001 35.3299C38.7001 37.0999 39.9701 38.7999 42.5901 38.7999C46.0001 38.8299 49.1501 37.1899 49.1501 31.8999Z" fill="#CCCCCC"/>
<path d="M67.8597 28.9999C67.8597 34.4099 71.3797 37.4499 75.5097 37.4499C77.0509 37.5132 78.5681 37.0537 79.8152 36.146C81.0624 35.2384 81.9661 33.9358 82.3797 32.4499L89.4897 34.8199C88.1497 39.8199 83.4897 44.8999 75.4897 44.8999C73.4005 44.9345 71.326 44.5455 69.3912 43.7564C67.4565 42.9673 65.7017 41.7944 64.2326 40.3085C62.7636 38.8226 61.6108 37.0546 60.8437 35.111C60.0767 33.1674 59.7113 31.0886 59.7697 28.9999C59.7697 19.7699 66.5797 13.1499 75.2697 13.1499C83.4097 13.1499 88.0297 18.1499 89.2697 23.2299L82.0797 25.6999C81.7262 24.2268 80.8714 22.9225 79.6619 22.0103C78.4523 21.0981 76.9632 20.6349 75.4497 20.6999C71.3197 20.6599 67.8597 23.6399 67.8597 28.9999Z" fill="#CCCCCC"/>
<path d="M109.41 26.67L121.63 44H111.72L103.82 32.58L100.48 36.1V44H92.4004V0H100.48V25.22L110.81 14.1H121.38L109.41 26.67Z" fill="#CCCCCC"/>
</g>
<defs>
<clipPath id="clip0">
<rect width="153.24" height="44.9" fill="white"/>
</clipPath>
</defs>
</svg>
