<?xml version="1.0" standalone="no"?>
<!DOCTYPE svg PUBLIC "-//W3C//DTD SVG 20010904//EN"
 "http://www.w3.org/TR/2001/REC-SVG-20010904/DTD/svg10.dtd">
<svg version="1.0" xmlns="http://www.w3.org/2000/svg"
 width="430.000000pt" height="430.000000pt" viewBox="0 0 430.000000 430.000000"
 preserveAspectRatio="xMidYMid meet">
<metadata>
Created by potrace 1.14, written by Peter Selinger 2001-2017
</metadata>
<g transform="translate(0.000000,430.000000) scale(0.100000,-0.100000)"
fill="#000000" stroke="none">
<path d="M1945 4284 c-645 -63 -1223 -410 -1581 -949 -83 -125 -106 -167 -168
-302 -103 -228 -157 -437 -182 -706 -15 -165 -15 -189 0 -355 18 -184 51 -348
104 -508 179 -537 586 -999 1099 -1245 243 -116 471 -178 756 -205 165 -15
189 -15 355 0 184 18 348 51 508 104 537 179 999 586 1245 1099 116 243 178
471 205 755 15 166 15 190 0 355 -18 185 -51 349 -104 509 -179 537 -586 999
-1099 1245 -238 114 -471 178 -742 203 -190 18 -208 18 -396 0z m1063 -591 l3
-52 -34 -6 c-19 -4 -45 -5 -58 -3 -22 3 -24 9 -27 61 l-3 58 58 -3 58 -3 3
-52z m272 -228 l0 -145 -140 0 -140 0 0 145 0 145 140 0 140 0 0 -145z m-350
-60 l0 -86 -82 3 -83 3 -3 69 c-2 38 -1 75 2 83 4 9 28 13 86 13 l80 0 0 -85z
m-535 -127 c237 -135 215 -113 215 -219 l0 -89 160 0 159 0 86 -51 c135 -80
125 -27 125 -617 0 -532 0 -532 -46 -574 -11 -9 -91 -58 -179 -108 -88 -51
-202 -117 -252 -147 l-93 -54 0 -218 0 -218 -82 -48 c-46 -26 -184 -106 -307
-178 -197 -115 -229 -131 -270 -131 -42 -1 -71 14 -321 158 -151 87 -284 165
-294 175 -10 9 -27 34 -37 56 -18 38 -19 87 -19 900 0 813 1 862 19 900 10 22
27 47 37 56 10 9 109 68 219 131 110 63 299 172 420 241 180 104 227 127 260
127 31 0 72 -19 200 -92z m495 -158 l0 -120 -120 0 -120 0 0 120 0 120 120 0
120 0 0 -120z m230 40 l0 -80 -80 0 -80 0 0 80 0 80 80 0 80 0 0 -80z"/>
<path d="M1925 2794 c-121 -70 -231 -136 -243 -148 -54 -48 -52 -25 -52 -733
l0 -658 23 -39 c17 -29 45 -52 117 -93 132 -77 149 -76 303 13 l117 68 0 433
c0 297 3 433 11 433 5 0 51 -24 102 -54 51 -30 132 -77 181 -105 l89 -51 70
43 c116 70 111 56 115 355 2 141 0 276 -3 299 -8 54 -41 94 -108 131 -29 15
-132 74 -229 130 -238 138 -208 139 -493 -24z"/>
</g>
</svg>
